<?xml version="1.0" encoding="iso-8859-1"?>
<!-- Generator: Adobe Illustrator 13.0.0, SVG Export Plug-In . SVG Version: 6.00 Build 14948)  -->
<!DOCTYPE svg PUBLIC "-//W3C//DTD SVG 1.1//EN" "http://www.w3.org/Graphics/SVG/1.1/DTD/svg11.dtd">
<svg version="1.1" id="Layer_1" xmlns="http://www.w3.org/2000/svg" xmlns:xlink="http://www.w3.org/1999/xlink" x="0px" y="0px"
	 width="100px" height="100px" viewBox="0 0 100 100" enable-background="new 0 0 100 100" xml:space="preserve">
<g>
	<radialGradient id="SVGID_1_" cx="47.7944" cy="30.4907" r="62.9041" gradientUnits="userSpaceOnUse">
		<stop  offset="0" style="stop-color:#ECBA31"/>
		<stop  offset="0.3576" style="stop-color:#CB2229"/>
		<stop  offset="0.6606" style="stop-color:#A22430"/>
		<stop  offset="1" style="stop-color:#540000"/>
	</radialGradient>
	<path fill="url(#SVGID_1_)" d="M69.321,85.011c-0.187-0.01-0.301-0.223-0.301-0.223s-0.062,0.051-0.125,0.051
		c-0.062,0-0.156-0.051-0.156-0.051s-0.104,0.29-0.113,0.482c-0.011,0.135-0.052,0.415-0.156,0.482
		c0.146,0.238,0.291,0.441,0.354,0.561l0,0v0.006c0,0.01,0.011,0.015,0.011,0.025c0.021,0.021,0.052,0.037,0.082,0.052
		c-0.051-0.067-0.072-0.176-0.072-0.176c0.011,0.052,0.03,0.093,0.042,0.124c-0.031-0.083,0.01-0.223,0.01-0.223
		c-0.021,0.104-0.021,0.171,0,0.212c-0.01-0.025-0.01-0.052-0.01-0.088c0-0.011,0.01-0.021,0.01-0.021v-0.011l0,0
		c0,0,0-0.005,0.011-0.01c-0.011,0.005-0.011,0.005-0.011,0.005c0.031-0.047,0.094-0.052,0.146-0.047
		c-0.041,0-0.094,0.011-0.114,0.042c0.011-0.016,0.042-0.037,0.136-0.042c0.03,0.005,0.051,0.011,0.051,0.011
		c-0.01-0.006-0.031-0.006-0.041-0.006l-0.01,0.006c0.02-0.006,0.03,0,0.03,0c-0.011-0.006-0.03,0-0.042,0.005
		c-0.01,0.006-0.02,0.016-0.03,0.031c-0.011,0.005-0.011,0.005-0.011,0.011c0-0.006,0.011-0.006,0.011-0.006
		c-0.011,0.006-0.011,0.016-0.011,0.026c0.011,0.041,0.072,0.093,0.125,0.124c0.01,0,0.01,0.005,0.021,0.005
		c-0.021-0.01-0.021-0.02-0.021-0.02c0.01,0.01,0.021,0.02,0.031,0.025c0.052,0.016,0.093,0.016,0.124,0.011
		c0.021-0.017,0.042-0.031,0.042-0.031l0,0c-0.011,0.005-0.021,0.005-0.031,0.01c-0.011,0-0.011,0.005-0.021,0.005c0,0,0,0-0.01,0
		c-0.021,0.006-0.052,0.006-0.072,0l0,0l0,0l0,0l0,0h-0.011l0,0l0,0c-0.011,0-0.011-0.005-0.011-0.005s0,0.005,0.021,0.005l0,0
		c0.051-0.005,0.104-0.02,0.135-0.036c0,0,0.011-0.015,0.021-0.021l0,0c-0.083,0.062-0.26-0.031-0.26-0.031
		c0.177,0.073,0.239,0.042,0.271,0.016c0.011-0.016,0.02-0.031,0.041-0.046c-0.01,0.005-0.021,0.005-0.03,0.015h-0.011
		c-0.011,0.016-0.031,0.021-0.031,0.031c-0.042,0.042-0.073,0.026-0.073,0.026c0.021,0.005,0.052-0.016,0.094-0.052
		c-0.021,0-0.021-0.006-0.031-0.011c0.011,0.005,0.021,0.005,0.031,0.005c0.052-0.046,0.104-0.108,0.146-0.145
		c0.052-0.031,0.104-0.058,0.146-0.072c0.041-0.021,0.093-0.037,0.155-0.053c0.135-0.031,0.208-0.016,0.249,0
		c0-0.073,0-0.088,0-0.124c-0.01-0.048-0.041-0.172-0.041-0.172s-0.052,0.036-0.094-0.021c-0.03-0.058-0.03-0.114-0.042-0.146
		c-0.01-0.025-0.01-0.057-0.02-0.12c-0.011-0.067-0.021-0.207,0-0.29c0.04-0.088,0.04-0.088,0.082-0.067
		c0,0-0.011-0.177,0.011-0.312c0.021-0.13,0.094-0.321,0.229-0.473c0.062-0.062,0.146-0.13,0.249-0.191
		c-0.021-0.244-0.062-0.488-0.114-0.711c-0.146-0.618-0.312-1.091-0.312-1.2c0-0.036-0.031-0.114-0.062-0.196
		c-0.062-0.167-0.146-0.359-0.146-0.359l-1.069,1.241c0,0-0.083,0.28,0.021,0.731c0.104,0.447,0.126,0.598,0.271,0.618
		c0.146,0.025,0.249,0.368,0.249,0.368s0.021,0.203,0.136,0.224C69.487,84.818,69.519,85.026,69.321,85.011z M69.031,86.205
		c0.031-0.016,0.062-0.026,0.062-0.026C69.062,86.185,69.041,86.194,69.031,86.205z M69.01,86.153H69
		c-0.031,0.005-0.053,0.01-0.062,0.021c0.021-0.011,0.041-0.021,0.062-0.021H69.01c0.053-0.006,0.114,0.01,0.114,0.01
		C69.072,86.147,69.041,86.147,69.01,86.153z"/>
	<radialGradient id="SVGID_2_" cx="67.4629" cy="87.0742" r="0.0014" gradientUnits="userSpaceOnUse">
		<stop  offset="0" style="stop-color:#ECBA31"/>
		<stop  offset="0.3576" style="stop-color:#CB2229"/>
		<stop  offset="0.6606" style="stop-color:#A22430"/>
		<stop  offset="1" style="stop-color:#540000"/>
	</radialGradient>
	<polygon fill="url(#SVGID_2_)" points="67.463,87.072 67.463,87.076 67.463,87.076 	"/>
	<radialGradient id="SVGID_3_" cx="48.604" cy="39.4243" r="53.9024" gradientUnits="userSpaceOnUse">
		<stop  offset="0" style="stop-color:#ECBA31"/>
		<stop  offset="0.3576" style="stop-color:#CB2229"/>
		<stop  offset="0.6606" style="stop-color:#A22430"/>
		<stop  offset="1" style="stop-color:#540000"/>
	</radialGradient>
	<path fill="url(#SVGID_3_)" d="M69.301,86.365c0.01-0.005,0.021-0.01,0.031-0.015c0-0.006,0-0.006,0-0.006s0,0-0.011,0
		c-0.021,0.016-0.042,0.025-0.042,0.025c0.011-0.005,0.021-0.015,0.042-0.02c-0.052,0.015-0.104,0.02-0.124,0.02
		c0.021,0.006,0.041,0.006,0.072,0C69.279,86.37,69.29,86.365,69.301,86.365z"/>
	<radialGradient id="SVGID_4_" cx="49.1709" cy="29.665" r="63.2255" gradientUnits="userSpaceOnUse">
		<stop  offset="0" style="stop-color:#ECBA31"/>
		<stop  offset="0.3576" style="stop-color:#CB2229"/>
		<stop  offset="0.6606" style="stop-color:#A22430"/>
		<stop  offset="1" style="stop-color:#540000"/>
	</radialGradient>
	<path fill="url(#SVGID_4_)" d="M68.958,86.537c-0.042-0.016-0.062-0.026-0.084-0.041c0,0.021,0,0.036,0.012,0.057
		C68.896,86.542,68.906,86.537,68.958,86.537z"/>
	<radialGradient id="SVGID_5_" cx="48.6958" cy="27.8545" r="65.1862" gradientUnits="userSpaceOnUse">
		<stop  offset="0" style="stop-color:#ECBA31"/>
		<stop  offset="0.3576" style="stop-color:#CB2229"/>
		<stop  offset="0.6606" style="stop-color:#A22430"/>
		<stop  offset="1" style="stop-color:#540000"/>
	</radialGradient>
	<path fill="url(#SVGID_5_)" d="M68.865,86.459c0,0.01,0,0.021,0,0.031c0.03,0.016,0.062,0.031,0.093,0.042v-0.006
		c-0.062-0.021-0.084-0.041-0.084-0.041c0.021,0.015,0.053,0.031,0.084,0.036c0,0,0-0.005,0-0.011
		C68.916,86.496,68.886,86.475,68.865,86.459z"/>
	<radialGradient id="SVGID_6_" cx="51.6543" cy="31.5283" r="60.55" gradientUnits="userSpaceOnUse">
		<stop  offset="0" style="stop-color:#ECBA31"/>
		<stop  offset="0.3576" style="stop-color:#CB2229"/>
		<stop  offset="0.6606" style="stop-color:#A22430"/>
		<stop  offset="1" style="stop-color:#540000"/>
	</radialGradient>
	<path fill="url(#SVGID_6_)" d="M69.031,86.662c-0.011-0.011-0.021-0.031-0.031-0.048c0,0,0,0.017,0,0.021l0,0
		c0,0,0,0.005,0.01,0.01C69.01,86.646,69.021,86.656,69.031,86.662z"/>
	<radialGradient id="SVGID_7_" cx="48.0723" cy="29.3711" r="63.9025" gradientUnits="userSpaceOnUse">
		<stop  offset="0" style="stop-color:#ECBA31"/>
		<stop  offset="0.3576" style="stop-color:#CB2229"/>
		<stop  offset="0.6606" style="stop-color:#A22430"/>
		<stop  offset="1" style="stop-color:#540000"/>
	</radialGradient>
	<path fill="url(#SVGID_7_)" d="M69.113,86.578c0,0-0.031-0.011-0.072-0.031c-0.031,0-0.052-0.005-0.072-0.01l0,0
		c0.01,0.03,0.021,0.047,0.031,0.067V86.6c0,0.005,0,0.005,0,0.005c0.021,0.031,0.041,0.052,0.051,0.067
		C69.104,86.677,69.113,86.578,69.113,86.578z"/>
	<radialGradient id="SVGID_8_" cx="46.6084" cy="30.2007" r="63.6413" gradientUnits="userSpaceOnUse">
		<stop  offset="0" style="stop-color:#ECBA31"/>
		<stop  offset="0.3576" style="stop-color:#CB2229"/>
		<stop  offset="0.6606" style="stop-color:#A22430"/>
		<stop  offset="1" style="stop-color:#540000"/>
	</radialGradient>
	<path fill="url(#SVGID_8_)" d="M69.051,86.351c-0.02-0.021-0.041-0.048-0.051-0.062C69.01,86.309,69.031,86.329,69.051,86.351z"/>
	<radialGradient id="SVGID_9_" cx="48.3623" cy="25.6733" r="67.4636" gradientUnits="userSpaceOnUse">
		<stop  offset="0" style="stop-color:#ECBA31"/>
		<stop  offset="0.3576" style="stop-color:#CB2229"/>
		<stop  offset="0.6606" style="stop-color:#A22430"/>
		<stop  offset="1" style="stop-color:#540000"/>
	</radialGradient>
	<path fill="url(#SVGID_9_)" d="M68.958,86.521c0.021,0.005,0.031,0.011,0.042,0.011c-0.011-0.006-0.031-0.011-0.042-0.021
		C68.958,86.517,68.958,86.521,68.958,86.521z"/>
	<radialGradient id="SVGID_10_" cx="49.1973" cy="30.0229" r="62.8615" gradientUnits="userSpaceOnUse">
		<stop  offset="0" style="stop-color:#ECBA31"/>
		<stop  offset="0.3576" style="stop-color:#CB2229"/>
		<stop  offset="0.6606" style="stop-color:#A22430"/>
		<stop  offset="1" style="stop-color:#540000"/>
	</radialGradient>
	<path fill="url(#SVGID_10_)" d="M68.927,86.734C68.958,86.744,69,86.729,69,86.729c-0.011-0.011,0-0.062,0-0.089
		c-0.011-0.01-0.011-0.021,0-0.031c-0.021-0.021-0.031-0.046-0.042-0.072l0,0c-0.052,0.005-0.062,0.01-0.072,0.016
		c0,0.036,0.01,0.073,0.021,0.114c0.01-0.005,0.021-0.005,0.021-0.005c-0.011,0.005-0.011,0.01-0.021,0.015
		C68.916,86.698,68.916,86.714,68.927,86.734z"/>
	<radialGradient id="SVGID_11_" cx="68.9844" cy="86.5312" r="0.0184" gradientUnits="userSpaceOnUse">
		<stop  offset="0" style="stop-color:#ECBA31"/>
		<stop  offset="0.3576" style="stop-color:#CB2229"/>
		<stop  offset="0.6606" style="stop-color:#A22430"/>
		<stop  offset="1" style="stop-color:#540000"/>
	</radialGradient>
	<path fill="url(#SVGID_11_)" d="M68.969,86.532c0,0,0.01,0,0.01,0.005c0.011,0,0.021,0,0.031,0
		c-0.021-0.005-0.031-0.005-0.052-0.011C68.958,86.526,68.958,86.532,68.969,86.532z"/>
	<radialGradient id="SVGID_12_" cx="69.3428" cy="86.3291" r="0" gradientUnits="userSpaceOnUse">
		<stop  offset="0" style="stop-color:#ECBA31"/>
		<stop  offset="0.3576" style="stop-color:#CB2229"/>
		<stop  offset="0.6606" style="stop-color:#A22430"/>
		<stop  offset="1" style="stop-color:#540000"/>
	</radialGradient>
	<polygon fill="url(#SVGID_12_)" points="69.343,86.329 69.343,86.329 69.343,86.329 	"/>
	<radialGradient id="SVGID_13_" cx="46.9438" cy="29.7837" r="63.9211" gradientUnits="userSpaceOnUse">
		<stop  offset="0" style="stop-color:#ECBA31"/>
		<stop  offset="0.3576" style="stop-color:#CB2229"/>
		<stop  offset="0.6606" style="stop-color:#A22430"/>
		<stop  offset="1" style="stop-color:#540000"/>
	</radialGradient>
	<path fill="url(#SVGID_13_)" d="M69.062,86.36c0.051,0.041,0.113,0.072,0.113,0.072C69.124,86.407,69.093,86.382,69.062,86.36z"/>
	<radialGradient id="SVGID_14_" cx="47.8726" cy="30.4604" r="62.9486" gradientUnits="userSpaceOnUse">
		<stop  offset="0" style="stop-color:#ECBA31"/>
		<stop  offset="0.3576" style="stop-color:#CB2229"/>
		<stop  offset="0.6606" style="stop-color:#A22430"/>
		<stop  offset="1" style="stop-color:#540000"/>
	</radialGradient>
	<path fill="url(#SVGID_14_)" d="M31.841,76.929c-0.146-0.275-0.529-0.8-0.529-0.8s-0.062,0.831-0.062,1.245
		c0,0.416,0.145,0.935,0.436,1.786c0.021,0.057,0.042,0.13,0.062,0.197c0.042-0.104,0.094-0.223,0.146-0.373
		c-0.011-0.499,0.156-0.889,0.311-1.055c0.094-0.28,0.187-0.492,0.187-0.492s-0.114-0.067-0.249-0.177
		c-0.094-0.047-0.156-0.089-0.156-0.089s0.01-0.01,0.031-0.031C31.945,77.079,31.893,77.006,31.841,76.929z"/>
	<radialGradient id="SVGID_15_" cx="46.2026" cy="32.729" r="59.9687" gradientUnits="userSpaceOnUse">
		<stop  offset="0" style="stop-color:#ECBA31"/>
		<stop  offset="0.3576" style="stop-color:#CB2229"/>
		<stop  offset="0.6606" style="stop-color:#A22430"/>
		<stop  offset="1" style="stop-color:#540000"/>
	</radialGradient>
	<path fill="url(#SVGID_15_)" d="M8.824,74.546c0.042,0.02,0.073,0.041,0.093,0.051c0.021,0.006,0.052,0.006,0.073,0
		c-0.062-0.01-0.114-0.031-0.146-0.046C8.834,74.551,8.824,74.546,8.824,74.546z"/>
	<radialGradient id="SVGID_16_" cx="47.9351" cy="36.312" r="58.46" gradientUnits="userSpaceOnUse">
		<stop  offset="0" style="stop-color:#ECBA31"/>
		<stop  offset="0.3576" style="stop-color:#CB2229"/>
		<stop  offset="0.6606" style="stop-color:#A22430"/>
		<stop  offset="1" style="stop-color:#540000"/>
	</radialGradient>
	<path fill="url(#SVGID_16_)" d="M9.031,74.582c-0.042,0-0.093-0.005-0.145-0.017C8.927,74.577,8.969,74.587,9,74.592
		C9.021,74.587,9.021,74.587,9.031,74.582z"/>
	<radialGradient id="SVGID_17_" cx="45.3916" cy="29.1084" r="62.3784" gradientUnits="userSpaceOnUse">
		<stop  offset="0" style="stop-color:#ECBA31"/>
		<stop  offset="0.3576" style="stop-color:#CB2229"/>
		<stop  offset="0.6606" style="stop-color:#A22430"/>
		<stop  offset="1" style="stop-color:#540000"/>
	</radialGradient>
	<path fill="url(#SVGID_17_)" d="M8.564,75.023c0.01,0.01,0.031,0.015,0.051,0.031c-0.021-0.026-0.042-0.058-0.062-0.089
		c0,0.016,0,0.026,0,0.036l0,0C8.564,75.013,8.564,75.018,8.564,75.023z"/>
	<radialGradient id="SVGID_18_" cx="48.1641" cy="30.1226" r="63.4441" gradientUnits="userSpaceOnUse">
		<stop  offset="0" style="stop-color:#ECBA31"/>
		<stop  offset="0.3576" style="stop-color:#CB2229"/>
		<stop  offset="0.6606" style="stop-color:#A22430"/>
		<stop  offset="1" style="stop-color:#540000"/>
	</radialGradient>
	<path fill="url(#SVGID_18_)" d="M8.543,74.302c-0.042,0.191,0.322,0.348,0.322,0.348C8.574,74.498,8.533,74.363,8.543,74.302z"/>
	<radialGradient id="SVGID_19_" cx="46.3145" cy="28.25" r="63.692" gradientUnits="userSpaceOnUse">
		<stop  offset="0" style="stop-color:#ECBA31"/>
		<stop  offset="0.3576" style="stop-color:#CB2229"/>
		<stop  offset="0.6606" style="stop-color:#A22430"/>
		<stop  offset="1" style="stop-color:#540000"/>
	</radialGradient>
	<path fill="url(#SVGID_19_)" d="M8.554,74.821c-0.021-0.011-0.042-0.021-0.073-0.037c0,0.01,0,0.016,0.01,0.021
		C8.512,74.815,8.533,74.815,8.554,74.821z"/>
	<radialGradient id="SVGID_20_" cx="47.875" cy="30.4644" r="62.953" gradientUnits="userSpaceOnUse">
		<stop  offset="0" style="stop-color:#ECBA31"/>
		<stop  offset="0.3576" style="stop-color:#CB2229"/>
		<stop  offset="0.6606" style="stop-color:#A22430"/>
		<stop  offset="1" style="stop-color:#540000"/>
	</radialGradient>
	<path fill="url(#SVGID_20_)" d="M24.657,79.923c-0.052-0.55-0.114-1.085-0.094-1.4c0.021-0.499,0-0.556-0.072-0.967
		c-0.062-0.415-0.177-0.944-0.353-1.043c-0.187-0.093-0.114,0.374-0.156,0.779c-0.031,0.353-0.25,0.675-0.561,1.116
		c-0.052,0.062-0.093,0.129-0.145,0.196c-0.062,0.089-0.114,0.166-0.166,0.244c-0.239,0.399-0.25,0.649-0.25,0.649
		s0.011,0.01,0.021,0.031c0.176,0.072,0.343,0.146,0.488,0.233c0.146,0.093,0.312,0.249,0.478,0.431
		c0.28,0.047,0.55,0.135,0.55,0.135S24.563,80.074,24.657,79.923z"/>
	<radialGradient id="SVGID_21_" cx="48.127" cy="42.7231" r="54.1212" gradientUnits="userSpaceOnUse">
		<stop  offset="0" style="stop-color:#ECBA31"/>
		<stop  offset="0.3576" style="stop-color:#CB2229"/>
		<stop  offset="0.6606" style="stop-color:#A22430"/>
		<stop  offset="1" style="stop-color:#540000"/>
	</radialGradient>
	<path fill="url(#SVGID_21_)" d="M8.522,74.826c0.011,0,0.031,0,0.052,0c-0.031,0-0.062-0.005-0.083-0.011v0.006
		C8.502,74.821,8.512,74.826,8.522,74.826z"/>
	<radialGradient id="SVGID_22_" cx="47.8521" cy="30.3604" r="63.0385" gradientUnits="userSpaceOnUse">
		<stop  offset="0" style="stop-color:#ECBA31"/>
		<stop  offset="0.3576" style="stop-color:#CB2229"/>
		<stop  offset="0.6606" style="stop-color:#A22430"/>
		<stop  offset="1" style="stop-color:#540000"/>
	</radialGradient>
	<path fill="url(#SVGID_22_)" d="M15.219,81.471c-0.021,0.01-0.042,0.01-0.062,0.01c-0.083-0.01-0.156,0.042-0.218,0.047
		c-0.062,0.006-0.176-0.005-0.249-0.011c-0.062-0.005-0.104,0-0.135,0c-0.042,0-0.135-0.021-0.125-0.088
		c0.021-0.067-0.051-0.114,0.312-0.13c0.363-0.021,0.332-0.104,0.332-0.104s-0.156,0.057-0.363,0.011
		c-0.197-0.042-0.312-0.026-0.384-0.047c-0.052-0.021-0.125-0.031-0.208-0.047c0.155,0.135,0.25,0.255,0.322,0.368
		c0.135,0.198,0.166,0.52,0.384,0.888C14.846,81.953,14.991,81.646,15.219,81.471z"/>
	<radialGradient id="SVGID_23_" cx="8.3984" cy="74.5557" r="0" gradientUnits="userSpaceOnUse">
		<stop  offset="0" style="stop-color:#ECBA31"/>
		<stop  offset="0.3576" style="stop-color:#CB2229"/>
		<stop  offset="0.6606" style="stop-color:#A22430"/>
		<stop  offset="1" style="stop-color:#540000"/>
	</radialGradient>
	<polygon fill="url(#SVGID_23_)" points="8.398,74.556 8.398,74.556 8.398,74.556 	"/>
	<radialGradient id="SVGID_24_" cx="47.897" cy="28.3735" r="64.6893" gradientUnits="userSpaceOnUse">
		<stop  offset="0" style="stop-color:#ECBA31"/>
		<stop  offset="0.3576" style="stop-color:#CB2229"/>
		<stop  offset="0.6606" style="stop-color:#A22430"/>
		<stop  offset="1" style="stop-color:#540000"/>
	</radialGradient>
	<path fill="url(#SVGID_24_)" d="M8.896,74.546C8.938,74.551,9,74.556,9.052,74.54c0.031-0.005,0.062-0.021,0.093-0.042v-0.015
		c0,0-0.011,0.005-0.021,0.01c-0.042,0.031-0.083,0.042-0.083,0.042c0.031-0.006,0.052-0.021,0.072-0.037
		C9.031,74.524,8.938,74.54,8.896,74.546z"/>
	<radialGradient id="SVGID_25_" cx="9.1558" cy="74.4678" r="0" gradientUnits="userSpaceOnUse">
		<stop  offset="0" style="stop-color:#ECBA31"/>
		<stop  offset="0.3576" style="stop-color:#CB2229"/>
		<stop  offset="0.6606" style="stop-color:#A22430"/>
		<stop  offset="1" style="stop-color:#540000"/>
	</radialGradient>
	<polygon fill="url(#SVGID_25_)" points="9.156,74.468 9.156,74.468 9.156,74.468 	"/>
	<radialGradient id="SVGID_26_" cx="48.4038" cy="30.2539" r="63.5066" gradientUnits="userSpaceOnUse">
		<stop  offset="0" style="stop-color:#ECBA31"/>
		<stop  offset="0.3576" style="stop-color:#CB2229"/>
		<stop  offset="0.6606" style="stop-color:#A22430"/>
		<stop  offset="1" style="stop-color:#540000"/>
	</radialGradient>
	<path fill="url(#SVGID_26_)" d="M8.554,74.945v0.005c0.031,0.057,0.062,0.094,0.104,0.114c0.083,0.01,0.094-0.161,0.094-0.161
		s-0.052-0.021-0.125-0.052c-0.041-0.005-0.083-0.011-0.114-0.021c-0.01,0-0.01,0-0.021,0c0.021,0.048,0.042,0.089,0.062,0.12
		C8.554,74.945,8.554,74.945,8.554,74.945z"/>
	<radialGradient id="SVGID_27_" cx="49.8633" cy="30.6084" r="64.2437" gradientUnits="userSpaceOnUse">
		<stop  offset="0" style="stop-color:#ECBA31"/>
		<stop  offset="0.3576" style="stop-color:#CB2229"/>
		<stop  offset="0.6606" style="stop-color:#A22430"/>
		<stop  offset="1" style="stop-color:#540000"/>
	</radialGradient>
	<path fill="url(#SVGID_27_)" d="M9.758,75.423c-0.021-0.047-0.104-0.208-0.146-0.291C9.654,75.215,9.727,75.376,9.758,75.423z"/>
	<radialGradient id="SVGID_28_" cx="47.8359" cy="30.4873" r="62.9151" gradientUnits="userSpaceOnUse">
		<stop  offset="0" style="stop-color:#ECBA31"/>
		<stop  offset="0.3576" style="stop-color:#CB2229"/>
		<stop  offset="0.6606" style="stop-color:#A22430"/>
		<stop  offset="1" style="stop-color:#540000"/>
	</radialGradient>
	<path fill="url(#SVGID_28_)" d="M13.734,80.848c0.083,0.047,0.156,0.093,0.218,0.14c0-0.016,0.011-0.03,0.021-0.047
		c0.021-0.057,0.135-0.031,0.208-0.025c0.072,0.005,0.332,0.067,0.332,0.067s-0.291-0.073-0.374-0.124
		c-0.093-0.048-0.145-0.067-0.228-0.109c-0.083-0.047-0.114-0.155-0.011-0.188c0.104-0.031,0.167-0.01,0.27,0.011
		c0.104,0.021,0.405,0.089,0.478,0.089c0.083,0,0.166-0.067,0.166-0.067s-0.228-0.027-0.425-0.058
		c-0.208-0.031-0.416-0.052-0.416-0.161c0.01-0.109,0.104-0.13,0.249-0.13c0.156,0,0.52-0.016,0.582-0.021
		c0.062-0.005,0.249-0.062,0.291-0.108c0.042-0.053,0.125-0.162,0.125-0.162l-0.094-0.217c0,0-0.093,0.098-0.218,0.072
		c-0.135-0.026-0.28-0.125-0.166-0.233c0.104-0.114,0.353-0.188,0.446-0.255c0.104-0.067,0.093-0.067,0.197-0.036
		c0.114,0.031,0.187,0.041,0.187,0.041s-0.125-0.067-0.156-0.182c-0.042-0.109-0.042-0.166-0.042-0.166s-0.208-0.155-0.332-0.343
		c-0.115-0.187-0.447-0.456-0.509-0.519c-0.062-0.058-0.384-0.286-0.437-0.322l-0.01-0.005c0,0,0.094,0.228,0.042,0.291
		c-0.052,0.062-0.135,0.254-0.146,0.327c0,0.077-0.135,0.124-0.135,0.16c0,0.026,0.042,0.229,0.052,0.556
		c0,0.124,0,0.27-0.021,0.425C13.838,80.043,13.786,80.525,13.734,80.848z"/>
	<radialGradient id="SVGID_29_" cx="46.8223" cy="26.8345" r="66.8562" gradientUnits="userSpaceOnUse">
		<stop  offset="0" style="stop-color:#ECBA31"/>
		<stop  offset="0.3576" style="stop-color:#CB2229"/>
		<stop  offset="0.6606" style="stop-color:#A22430"/>
		<stop  offset="1" style="stop-color:#540000"/>
	</radialGradient>
	<path fill="url(#SVGID_29_)" d="M69.248,86.401c-0.041-0.005-0.062-0.015-0.082-0.025c-0.011,0-0.011,0-0.021-0.006
		c0.031,0.017,0.053,0.026,0.062,0.031C69.218,86.407,69.238,86.407,69.248,86.401z"/>
	<radialGradient id="SVGID_30_" cx="47.8047" cy="30.4526" r="62.9354" gradientUnits="userSpaceOnUse">
		<stop  offset="0" style="stop-color:#ECBA31"/>
		<stop  offset="0.3576" style="stop-color:#CB2229"/>
		<stop  offset="0.6606" style="stop-color:#A22430"/>
		<stop  offset="1" style="stop-color:#540000"/>
	</radialGradient>
	<path fill="url(#SVGID_30_)" d="M85.954,81.372c0.135-0.026,0.166-0.27,0.166-0.27s0.124-0.416,0.301-0.441
		c0.188-0.027,0.208-0.203,0.332-0.748c0.135-0.54,0.031-0.872,0.031-0.872l-1.318-1.495c0,0-0.104,0.233-0.177,0.431
		c-0.041,0.104-0.072,0.197-0.072,0.239c0,0.13-0.207,0.695-0.396,1.442c-0.176,0.748-0.196,1.724-0.228,2.264
		c-0.021,0.54,0,0.39,0.104,0.903c0.062,0.312,0.146,0.603,0.197,0.903c0.042,0.192,0.062,0.385,0.062,0.592
		c0,0.161,0.021,0.249,0.062,0.338c0.166-0.062,0.322-0.047,0.426-0.099c0.208-0.089,0.446-0.312,0.633-0.457
		c0.177-0.15,0.623-0.13,0.623-0.13l-0.072-0.405c0,0-0.229,0-0.374-0.421c-0.146-0.425,0.166-0.389,0.166-0.389
		c-0.073-0.607,0.083-1.054,0.374-1.282c-0.021-0.072-0.042-0.119-0.042-0.119s-0.113,0.062-0.187,0.062
		c-0.084,0-0.156-0.062-0.156-0.062s-0.145,0.259-0.373,0.27C85.809,81.643,85.83,81.398,85.954,81.372z"/>
	<radialGradient id="SVGID_31_" cx="47.729" cy="36.0044" r="57.5615" gradientUnits="userSpaceOnUse">
		<stop  offset="0" style="stop-color:#ECBA31"/>
		<stop  offset="0.3576" style="stop-color:#CB2229"/>
		<stop  offset="0.6606" style="stop-color:#A22430"/>
		<stop  offset="1" style="stop-color:#540000"/>
	</radialGradient>
	<path fill="url(#SVGID_31_)" d="M69.27,86.396c-0.021,0-0.052-0.005-0.083-0.01c0.021,0.005,0.041,0.01,0.072,0.015L69.27,86.396z"
		/>
	<radialGradient id="SVGID_32_" cx="47.8091" cy="30.4688" r="62.9188" gradientUnits="userSpaceOnUse">
		<stop  offset="0" style="stop-color:#ECBA31"/>
		<stop  offset="0.3576" style="stop-color:#CB2229"/>
		<stop  offset="0.6606" style="stop-color:#A22430"/>
		<stop  offset="1" style="stop-color:#540000"/>
	</radialGradient>
	<path fill="url(#SVGID_32_)" d="M73.558,17.728H24.314c-9.281,0-16.871,7.595-16.871,16.876v41.878
		c0.145-0.244,0.332-0.473,0.508-0.582c0.115-0.062,0.25-0.13,0.384-0.202c0.011-0.094,0.042-0.208,0.104-0.265
		c-0.021-0.011-0.052-0.027-0.062-0.036c-0.021-0.017-0.094-0.073-0.156-0.146c-0.083-0.098-0.135-0.108-0.135-0.108
		s0.052,0.005,0.146,0.104c0.031,0.036,0.052,0.062,0.072,0.084c-0.031-0.042-0.062-0.089-0.072-0.136
		c-0.01-0.026-0.01-0.047,0-0.062c0-0.005,0.01-0.016,0.021-0.026h-0.01c0.01-0.01,0.021-0.025,0.031-0.036
		c-0.01,0.017-0.01,0.026-0.021,0.036c0.042-0.041,0.125-0.041,0.125-0.041s-0.021,0.01-0.011,0.041
		c0-0.046,0.052-0.057,0.052-0.057c-0.042,0.025-0.042,0.067-0.042,0.099c0.01,0,0.01,0,0.01,0.006
		c0.031,0.062,0.177,0.01,0.177,0.01c-0.031-0.016-0.021-0.104-0.011-0.15c-0.01-0.016-0.01-0.036,0-0.052
		c-0.031-0.042-0.052-0.089-0.062-0.131l0,0c-0.135,0.011-0.156,0.037-0.156,0.037s0.011-0.041,0.156-0.041
		c-0.228-0.058-0.27-0.177-0.27-0.177c0.062,0.088,0.156,0.141,0.27,0.172c-0.01-0.006-0.01-0.006-0.01-0.006
		c-0.114-0.036-0.135-0.078-0.135-0.078c0.031,0.025,0.083,0.053,0.135,0.067c0-0.011,0-0.015,0-0.021
		c-0.093-0.042-0.177-0.089-0.229-0.13c-0.062-0.047-0.062-0.104-0.041-0.146c-0.011,0.031,0,0.094,0.062,0.141
		c-0.021-0.021-0.062-0.072-0.062-0.166c0.01-0.005,0.01-0.011,0.01-0.016c-0.01-0.021-0.01-0.031-0.01-0.031
		c0,0.011,0.01,0.016,0.01,0.025c0.01-0.015,0.021-0.025,0.021-0.025c-0.01,0.016-0.01,0.031,0,0.042
		c0.042,0.046,0.104,0.082,0.166,0.104c-0.093-0.114-0.135-0.307-0.135-0.307c0.031,0.094,0.052,0.166,0.083,0.218
		c-0.052-0.145,0.021-0.389,0.021-0.389c-0.042,0.181-0.031,0.296-0.011,0.368c-0.01-0.042-0.01-0.093-0.01-0.151
		c0.01-0.02,0.01-0.03,0.021-0.046c0,0,0-0.005,0-0.011l0,0c0,0,0-0.011,0.01-0.015l-0.01,0.015
		c0.042-0.088,0.166-0.099,0.249-0.093c-0.021,0-0.041,0.01-0.062,0.015c0.031-0.005,0.051-0.01,0.093-0.01
		c0.063,0.005,0.104,0.016,0.104,0.016c-0.031-0.006-0.052-0.006-0.072-0.011c-0.011,0-0.011,0-0.032,0.011
		c0.042-0.011,0.073,0,0.073,0c-0.031-0.006-0.062,0-0.083,0.005c-0.021,0.017-0.031,0.031-0.062,0.062c0,0-0.011,0.005-0.011,0.016
		c0.031-0.062,0.146-0.072,0.146-0.072c-0.125,0.021-0.146,0.072-0.146,0.109c0.011,0.072,0.125,0.16,0.229,0.223
		c0.01,0,0.021,0,0.021,0c-0.021-0.016-0.031-0.031-0.031-0.031c0.01,0.021,0.031,0.031,0.062,0.042
		c0.083,0.025,0.156,0.031,0.208,0.02c0.042-0.02,0.072-0.051,0.072-0.051s0,0,0-0.006c-0.104,0.062-0.197,0.047-0.238,0.037
		c-0.01,0-0.01,0-0.01,0l0,0c-0.011-0.011-0.021-0.011-0.021-0.011s0.01,0,0.031,0.011C9,74.524,9.073,74.504,9.135,74.479
		c0.011-0.011,0.031-0.026,0.042-0.037c0-0.005,0-0.005,0-0.005C9.042,74.546,8.73,74.39,8.73,74.39
		c0.291,0.125,0.415,0.067,0.467,0.026c0.01-0.026,0.041-0.058,0.072-0.089c-0.021,0.006-0.031,0.016-0.052,0.026
		c-0.01,0.005-0.021,0.005-0.031,0.005c-0.021,0.021-0.031,0.036-0.042,0.052c-0.083,0.073-0.125,0.042-0.125,0.042
		c0.031,0.016,0.093-0.026,0.156-0.089c-0.021,0.006-0.031-0.01-0.042-0.015c0.011,0.005,0.031,0.01,0.042,0.01
		c0.083-0.077,0.176-0.187,0.259-0.254c0.083-0.058,0.167-0.099,0.239-0.13c0.083-0.036,0.177-0.067,0.291-0.094
		c0.239-0.052,0.364-0.021,0.426,0.005c0.01-0.129,0.01-0.155,0-0.223c-0.01-0.078-0.073-0.301-0.073-0.301
		s-0.093,0.067-0.156-0.031s-0.062-0.208-0.073-0.255c-0.021-0.052-0.021-0.109-0.042-0.218c-0.021-0.114-0.042-0.358,0.011-0.509
		c0.051-0.15,0.062-0.156,0.145-0.119c0,0-0.031-0.307,0-0.54c0.042-0.229,0.177-0.571,0.415-0.831
		c0.239-0.26,0.727-0.581,1.298-0.581l0,0v-2.616h3.914v4.07h-2.419c0.073,0.528,0.01,0.835,0.01,0.835s0.156-0.015,0.094,0.337
		c-0.062,0.354-0.135,0.312-0.166,0.437c-0.042,0.125-0.062,0.188-0.104,0.249c-0.042,0.062-0.083,0.083-0.177,0.042
		c0,0-0.072,0.161-0.187,0.437c-0.104,0.244-0.26,0.528-0.312,0.694c0.031,0.017,0.062,0.048,0.104,0.063
		c0.042,0.036,0.249,0.15,0.353,0.176c0.093,0.031,0.509,0.275,0.612,0.348c0.052,0.031,0.104,0.146,0.135,0.286
		c0.187,0.067,0.384,0.124,0.509,0.135c0.311,0.031,0.582,0.296,0.872,0.639c0.291,0.348,0.353,0.565,0.488,0.623
		c0.124,0.052,0.778,0.456,1.007,0.851c0.229,0.39,0.353,0.961,0.114,1.49c-0.228,0.535-0.384,0.603-0.499,0.722
		c-0.114,0.119-0.28,0.337-0.312,0.41c-0.031,0.072-0.156,0.354-0.291,0.467c-0.145,0.109-0.239,0.255-0.311,0.369
		c-0.011,0.026-0.032,0.046-0.042,0.062c0.208-0.109,0.467-0.135,0.758-0.042c0.54,0.172,0.592,0.701,0.582,1.049
		c0.229-0.706,0.551-1.562,0.758-1.692c0.333-0.197,0.499-0.379,0.696-0.462c0.197-0.089,0.675-0.603,1.298-0.618
		c0,0-0.01-0.036-0.021-0.094c-0.021-0.046-0.031-0.113-0.052-0.191c-0.021-0.119-0.031-0.271-0.031-0.447
		c0,0-0.176,0.017-0.312-0.347c-0.145-0.369-0.197-0.758,0.052-0.707c0,0-0.093-0.98,0.125-1.276
		c0.229-0.296,0.872-0.825,1.557-0.52c0.695,0.312,0.769,0.742,0.769,1.168l0,0c0.093-0.373,0.104-0.493,0.145-0.913
		c0.052-0.457,0.042-0.084,0.654-1.526c0.602-1.448,0.903-1.661,1.64-2.181c0.738-0.52,1.661-0.924,1.661-0.924l-0.01-0.031
		l-0.031-0.254l-0.115-0.991c0,0-0.394-0.115-0.581-0.593c-0.176-0.478,0.114-0.669,0.114-0.669l-0.042-0.607
		c-0.052-0.935,0.301-1.646,0.572-1.807c0.259-0.155,0.81-0.399,0.81-0.399s-0.26-0.048,0.208-0.213
		c0.467-0.172,0.882,0.125,0.882,0.125c0.094-0.156,0.176-0.41,0.758,0.352c0.591,0.765,0.675,1.039,0.706,1.859
		c0.031,0.814-0.114,0.814-0.114,0.814s0.021,0.078,0.011,0.566c-0.011,0.487-0.198,0.436-0.198,0.436s-0.114,0.125-0.166,0.307
		c-0.031,0.119-0.031,0.301-0.031,0.41c0.01,0.052,0.01,0.088,0.01,0.088l0,0c0.01,0.006,0.062,0.026,0.135,0.058
		c0.073,0.026,0.166,0.057,0.27,0.099c0.146,0.052,0.312,0.108,0.499,0.166c0.478,0.145,1.464,0.571,2.17,0.897
		c0.696,0.332,0.737,0.93,1.039,1.854c0.228,0.716,0.581,1.364,0.768,1.769c0.052,0.115,0.093,0.208,0.114,0.281
		c0,0.016,0.01,0.03,0.01,0.047c0.094,0.265,0.25,0.316,0.395,0.591c0.062,0.12,0.062,0.349,0.031,0.618
		c0.072,0.053,0.166,0.141,0.301,0.312c0.395,0.524,0.457,0.712,0.478,1.277c0.021,0.556-0.083,0.556-0.083,0.556
		s0.01,0.052,0.01,0.385c0.156-0.157,0.457-0.344,1.059-0.344c0.717,0,0.997,0.509,0.997,0.878c0,0.374-0.062,0.768-0.062,0.768
		s0.114,0.151,0,0.478c0.156,0.109,0.239,0.25,0.312,0.421c0.093-0.171,0.197-0.337,0.332-0.463c0.312-0.306,0.291-0.14,0.53-0.248
		c-0.031-0.504-0.052-1.09,0.052-1.422c0-0.017,0.01-0.037,0.021-0.059c0.021-0.104,0.073-0.248,0.125-0.425
		c0.27-0.846,0.769-2.326,1.07-2.507c0.374-0.234,0.571-0.447,0.81-0.546c0.229-0.098,0.789-0.705,1.526-0.722
		c0,0-0.01-0.041-0.031-0.114c-0.021-0.052-0.031-0.13-0.052-0.223c-0.021-0.141-0.052-0.317-0.052-0.52c0,0-0.197,0.016-0.353-0.41
		c-0.166-0.431-0.239-0.893,0.062-0.825c0,0-0.114-1.152,0.146-1.5c0.27-0.343,1.017-0.971,1.827-0.607
		c0.81,0.363,0.893,0.872,0.893,1.365s0.083,0.742,0.083,0.742s0.197-0.135,0.197,0.41s-0.363,0.742-0.363,0.742l-0.01,0.192
		l-0.01,0.166c0,0,0.342,0.058,0.778,0.166c0.104-0.67,0.176-1.303,0.197-1.78c0.01-0.166,0.01-0.332,0-0.503
		c-0.052-1.377,0.187-1.293,0.135-2.633c-0.052-1.345,0.156-4.112,0.187-6.219c0.031-2.107-0.25-5.643-0.25-5.643
		s-0.021-0.073-0.051-0.192c-0.125-0.4-0.437-1.313-1.007-2.014c-0.748-0.92-2.222-1.085-3.904-2.716
		c-1.682-1.635-2.294-2.004-2.533-2.757c-0.239-0.747-0.436-2.055-0.436-3.192c0-1.137,0.353-3.125,0.249-4.433
		c-0.104-1.309,0.041-1.188-0.135-1.568c-0.166-0.368-0.353-1.406,0.239-1.951c0.592-0.541,1.733-0.509,2.107-0.473
		c0.374,0.036,1.018,0.254,1.152,0.457c0.135,0.202,0.322,0.337,0.322,0.778c0,0.446-0.644,1.007-0.644,1.174
		c0,0.171-0.779,0.887-1.09,1.021c-0.301,0.136-0.187,1.241-0.167,2.206c0.021,0.972-0.104,2.296,0.135,2.804
		c0.239,0.509,0.509,0.695,1.09,1.885c0.571,1.188,0.384,1.225,1.391,1.838c0.997,0.612,1.952,0.493,2.294,0.478
		c0.343-0.021,1.464,0.016,2.388,0.711c0.125,0.088,0.229,0.16,0.322,0.229c0.686,0.457,0.924,0.404,1.433,0.301
		c0.437-0.094,0.769-0.378,0.914-0.524c0.042-0.041,0.073-0.072,0.073-0.072s0.478-0.343-0.291-1.802
		c-0.768-1.458-0.644-1.442-0.644-3.042c0-1.593,0.343-3.836,2.502-3.836c2.15,0,3.187,1.257,3.259,3.26
		c0,0,0.582,0.167,0.396,1.096c-0.177,0.929-0.623,1.49-1.018,1.401c0,0-0.27,0.686-0.353,1.199
		c-0.072,0.416,0.041,0.836,0.321,1.122c0.073,0.062,0.146,0.113,0.218,0.165c0.457,0.265,1.703,0.509,1.91,0.582
		c0.197,0.073,0.499-0.473,1.06-0.607c0.073-0.021,0.146-0.031,0.218-0.031c0.695-0.016,1.609,0.119,2.378-0.255
		c0.758-0.373,1.733-1.479,1.733-1.479s0.156-0.457-0.021-2.647c-0.166-2.191-0.208-4.299-0.208-4.299s-0.332-0.239-1.35-1.157
		c-1.027-0.919-1.494-1.833-0.851-2.176c0,0-0.073-1.017,0.778-0.778c0,0,0.27-0.956,1.256-0.337c0,0,0.925,0.202,1.152,0.503
		c0.239,0.307,1.163,0.104,1.226,0.717c0.073,0.612-0.062,1.152-0.062,1.463c0,0.302,0.062,2.58,0.405,3.53s0.675,2.445,0.675,3.842
		c0,1.392,0.478,2.035,0.404,2.377c-0.062,0.338,0.011,0.509-1.017,1.189c-1.018,0.68-1.589,1.733-3.125,2.751
		c-1.526,1.018-2.783,1.838-2.783,4.148c0,0.005,0,0.021,0,0.031c0,2.288-0.072,3.545-0.778,5.403
		c-0.717,1.868-0.654,3.363-0.135,5.71c0.394,1.817,0.602,1.309,0.55,2.736c-0.01,0.155,0,0.514,0.021,0.935
		c0.364-0.12,0.654-0.151,0.883-0.38c0.073-0.062,0.155-0.118,0.26-0.165c0.239-0.104,0.529-0.172,0.769-0.265
		c0.248-0.099,0.426-0.234,0.373-0.479c-0.114-0.586-0.114-0.586-0.114-0.586s-0.81-0.441-0.384-1.298c0,0-0.229-1.387,0.404-2.04
		c0.623-0.665,1.776-0.665,2.264-0.114c0.488,0.545,1.038,0.628,1.018,1.567c-0.031,0.945,0.094,0.914-0.031,1.085
		c-0.125,0.172-0.062,0.177-0.052,0.368c0,0.187,0.062,0.349-0.083,0.603c0,0-0.042,0.244-0.052,0.374
		c-0.01,0.129-0.052,0.332-0.177,0.556c0,0,0.052,0.021,0.146,0.057c0.156,0.072,0.436,0.202,0.727,0.404
		c0.062,0.048,0.125,0.084,0.177,0.115c0.312,0.208,0.415,0.217,0.633,0.337c0.26,0.141,0.645,0.073,0.945,0.742
		c0.291,0.67,0.363,1.101,0.363,1.65c0,0.546,0.238,0.562,0.436,1.138c0.188,0.571,0.281,0.95,0.426,1.298
		c0.156,0.348,0.395,0.639-0.041,1.032c-0.177,0.161-0.28,0.292-0.363,0.405c0.062-0.005,0.135-0.005,0.208-0.005
		c0.675,0,0.955,0.482,0.955,0.836c0,0.353-0.072,0.731-0.072,0.731s0.051,0.062,0.051,0.197c0.073,0.202,0.166,0.437,0.374,0.686
		c0.322,0.399,0.498,0.795,0.758,1.241c0.031,0.021,0.062,0.036,0.094,0.057c0.062,0.036,0.114,0.067,0.155,0.099
		c0.032-0.073,0.062-0.151,0.114-0.244c0.188-0.343,0.312-0.213,0.188-0.416c-0.125-0.207-0.385-0.378-0.426-0.7
		c-0.042-0.321,0.01-0.473,0.249-0.856s0.363-0.695,0.581-0.897c0.208-0.208,0.374-0.229,0.457-0.515
		c0.083-0.291,0.291-0.944,0.675-1.312c0.373-0.364,0.312-0.115,0.644-0.297c0.26-0.145,0.509-0.249,0.603-0.296
		c0.01-0.088,0.031-0.155,0.052-0.155c0.031,0,0.135-0.005,0.219-0.016c0.062,0,0.124-0.006,0.124-0.006l-0.011-0.279
		c0,0-0.239-0.032-0.405-0.405c-0.155-0.379-0.238-0.645,0.094-0.581c0,0-0.28-0.753-0.104-1.329
		c0.167-0.576,0.685-0.654,1.298-0.686c0.603-0.031,1.204,0.483,1.204,0.877c0,0.399,0.083,0.889,0.083,0.889
		s0.239-0.062,0.135,0.528c-0.104,0.587-0.353,0.587-0.353,0.587l0.01,0.271c0,0,0.095,0,0.271,0.021
		c0.187,0.026,0.437,0.072,0.758,0.166c0.146,0.047,0.312,0.099,0.488,0.166c0.208,0.083,0.374,0.155,0.519,0.234
		c0.395-0.099,0.717-0.151,0.717-0.151l-0.011-0.141v-0.166c0,0-0.312-0.171-0.312-0.633s0.167-0.354,0.167-0.354
		s0.072-0.207,0.072-0.628c0-0.426,0.072-0.856,0.758-1.168c0.415-0.187,0.811-0.062,1.111,0.125
		c0.082-0.229,0.135-0.431,0.238-0.576c0.218-0.312,0.509-0.695,1.64-1.121c0.208-0.078,0.416-0.146,0.593-0.198
		c0.395-0.113,0.716-0.171,0.924-0.196c0.229-0.031,0.353-0.031,0.353-0.031l0.011-0.321c0,0-0.312,0-0.446-0.707
		c-0.125-0.706,0.177-0.633,0.177-0.633s0.104-0.592,0.104-1.064c0-0.13,0.052-0.265,0.146-0.395v-3.275h3.903v4.07h-0.914
		c-0.03,0.508-0.197,0.965-0.197,0.965c0.405-0.077,0.302,0.244,0.104,0.696c-0.187,0.446-0.487,0.487-0.487,0.487l-0.011,0.333
		c0,0,0.073,0.004,0.155,0.01c0.104,0.01,0.218,0.016,0.26,0.016c0.031,0,0.052,0.082,0.062,0.191
		c0.124,0.053,0.425,0.183,0.748,0.349c0.415,0.223,0.332-0.078,0.799,0.363c0.457,0.436,0.716,1.22,0.82,1.567
		c0.104,0.349,0.312,0.374,0.561,0.618c0.26,0.244,0.415,0.618,0.716,1.08c0.291,0.467,0.364,0.644,0.302,1.032
		c-0.042,0.384-0.374,0.592-0.52,0.836c-0.156,0.244,0,0.088,0.229,0.504c0.228,0.41,0.219,0.618,0.27,1.079
		c0,0.042,0,0.078,0,0.109c0.094,0.368,0,0.753,0,0.753s0.073,0.113,0.073,0.425c0,0.312-0.124,0.421-0.124,0.421l0.021,0.369
		c0.196,0.146,0.633,0.182,1.193,0.326c0.083,0.026,0.166,0.078,0.239,0.135c0.073-0.108,0.166-0.202,0.249-0.259
		c0.052-0.166,0.094-0.338,0.135-0.509c-0.021-0.011-0.031-0.016-0.031-0.016s0.011,0.005,0.031,0.016
		c0.021-0.109,0.052-0.218,0.072-0.332c-0.01-0.011-0.01-0.021-0.01-0.021c0,0.011,0.01,0.011,0.01,0.011v-0.011
		c-0.031-0.031-0.031-0.067-0.021-0.099c0,0.021,0,0.053,0.031,0.084v-0.006c-0.021-0.016-0.031-0.047-0.031-0.093
		c0,0,0.011-0.006,0.011-0.011c-0.011-0.011-0.011-0.021-0.011-0.021c0,0.005,0.011,0.01,0.011,0.021c0-0.016,0.01-0.021,0.01-0.021
		c-0.01,0.01-0.01,0.021,0,0.031c0.011,0.005,0.021,0.01,0.031,0.015c0-0.025,0.011-0.051,0.011-0.077
		c-0.011-0.047-0.021-0.083-0.021-0.083c0.01,0.03,0.021,0.047,0.031,0.067c0.217-1.085,0.332-2.212,0.332-3.364V34.604
		C90.429,25.323,82.84,17.728,73.558,17.728z M8.45,74.192c0.115-0.073,0.312-0.021,0.312-0.021
		C8.595,74.136,8.502,74.156,8.45,74.192z M9.062,74.296c0.01,0.025,0.031,0.037,0.052,0.047
		C9.083,74.321,9.062,74.296,9.062,74.296z M15.832,63.104h-3.914v-4.065h3.914V63.104z M15.832,54.643h-3.914v-4.065h3.914V54.643z
		 M15.832,46.182h-3.914v-4.065h3.914V46.182z M15.832,37.719h-3.914v-4.07h3.914V37.719z M24.926,32.118l-1.619-1.173l-1.609,1.173
		l0.613-1.895l-1.61-1.173h1.994l0.613-1.895l0.623,1.895h1.994l-1.62,1.173L24.926,32.118z M29.391,42.994l-1.609-1.169
		l-1.62,1.169l0.623-1.896l-1.62-1.168h1.994l0.623-1.9l0.612,1.9h1.994l-1.609,1.168L29.391,42.994z M35.143,27.565l1.007,3.104
		l-2.637-1.921l-2.647,1.921l1.007-3.104l-2.637-1.921h3.26l1.018-3.104l1.007,3.104h3.26L35.143,27.565z M45.338,25.972
		l0.509,1.568l-1.329-0.971l-1.339,0.971l0.509-1.568l-1.329-0.971h1.651l0.509-1.573l0.509,1.573h1.65L45.338,25.972z
		 M85.289,63.104h-3.903v-4.065h3.903V63.104z M85.289,54.643h-3.903v-4.065h3.903V54.643z M85.289,46.182h-3.903v-4.065h3.903
		V46.182z M85.289,37.719h-3.903v-4.07h3.903V37.719z"/>
</g>
</svg>
